Coordinates
version=1
nRows=13
nColumns=40
inDegrees=yes

Units are S.I. units (second, meters, Newtons, ...)
If the header above contains a line with 'inDegrees', this indicates whether rotational values are in degrees (yes) or radians (no).

endheader
time	pelvis_tilt	pelvis_list	pelvis_rotation	pelvis_tx	pelvis_ty	pelvis_tz	hip_flexion_r	hip_adduction_r	hip_rotation_r	knee_angle_r	knee_angle_r_beta	ankle_angle_r	subtalar_angle_r	mtp_angle_r	hip_flexion_l	hip_adduction_l	hip_rotation_l	knee_angle_l	knee_angle_l_beta	ankle_angle_l	subtalar_angle_l	mtp_angle_l	lumbar_extension	lumbar_bending	lumbar_rotation	arm_flex_r	arm_add_r	arm_rot_r	elbow_flex_r	pro_sup_r	wrist_flex_r	wrist_dev_r	arm_flex_l	arm_add_l	arm_rot_l	elbow_flex_l	pro_sup_l	wrist_flex_l	wrist_dev_l
      0.17000000	     20.18306042	     -6.84222511	      4.39103027	     -0.99610888	      0.88942067	      0.22455300	     -0.43722081	      8.44675285	     -5.89295401	     18.85742537	      0.32912416	     -0.69176021	      0.00000000	      0.00000000	    -24.81438152	    -10.87859432	     -6.93028403	     45.57198768	      0.79538123	     -4.17802005	      0.00000000	      0.00000000	    -38.79402334	     11.45579050	      1.18875563	     -1.50296922	     -5.26086731	    -11.66887875	     29.42822506	     88.57522050	     -9.25872691	      2.56419797	      6.98618740	     -4.84938517	      2.78012546	     39.62776598	     89.01545801	    -20.60526165	     -3.79824224
      0.18000000	     20.29773748	     -7.11853963	      4.40915861	     -0.98474561	      0.89078222	      0.22641005	     -1.32089856	      8.98503834	     -5.70098890	     18.90188674	      0.32990016	      0.05338899	      0.00000000	      0.00000000	    -23.34021178	    -11.50738836	     -6.64747818	     48.10027923	      0.83950824	     -4.58533248	      0.00000000	      0.00000000	    -38.93785420	     11.56686845	      1.44489100	     -1.24295802	     -5.29811315	    -11.41890229	     29.59966032	     88.59094906	     -8.97462476	      3.00387575	      6.66852940	     -4.78829385	      2.84528586	     39.09655765	     89.03150080	    -20.64592211	     -3.46995241
      0.19000000	     20.71470948	     -7.06647736	      4.15576384	     -0.97366866	      0.89289469	      0.22855617	     -2.64535127	      9.16665810	     -5.32269249	     18.82295708	      0.32852258	      0.55906976	      0.00000000	      0.00000000	    -22.33901710	    -11.66606371	     -6.66394815	     50.10639512	      0.87452157	     -4.65426173	      0.00000000	      0.00000000	    -39.45768754	     11.21196826	      1.74593314	     -0.90583847	     -5.29106113	    -11.20423018	     29.76722009	     88.53279191	     -8.89141713	      3.03952928	      6.35943890	     -4.76322011	      2.85332062	     38.60712681	     89.02303230	    -20.64025178	     -3.35335378
      0.20000000	     20.52234560	     -7.31687044	      4.21315258	     -0.96277819	      0.89381176	      0.23025999	     -3.28839250	      9.67710690	     -5.00704502	     18.65570785	      0.32560353	      1.59473629	      0.00000000	      0.00000000	    -20.29086814	    -12.18826412	     -6.12876211	     52.43475585	      0.91515913	     -4.28411090	      0.00000000	      0.00000000	    -39.30014132	     11.32537120	      1.98959940	     -0.64272861	     -5.34431892	    -10.87601609	     30.05962655	     88.58903298	     -8.81853224	      3.16745085	      6.15831956	     -4.73489576	      3.21155392	     37.87881706	     89.05801015	    -20.65043430	     -3.08314613
      0.21000000	     20.53102617	     -7.20555530	      4.16385113	     -0.95237218	      0.89527725	      0.23202857	     -4.16325369	      9.75630109	     -4.94937509	     18.49599510	      0.32281601	      2.22456161	      0.00000000	      0.00000000	    -18.50651304	    -12.21673649	     -5.61274535	     54.31668107	      0.94800492	     -3.42372131	      0.00000000	      0.00000000	    -39.40532821	     11.01295358	      2.25946919	     -0.31998319	     -5.33767103	    -10.70851408	     30.26925011	     88.59169603	     -8.82849774	      3.24672736	      6.07839260	     -4.72733427	      3.61622642	     37.16491110	     89.07681021	    -20.70042773	     -2.84284438
      0.22000000	     20.69334257	     -6.96236512	      4.02755953	     -0.94189179	      0.89712969	      0.23377041	     -5.34265537	      9.70157719	     -4.68512411	     18.12076956	      0.31626709	      2.80523301	      0.00000000	      0.00000000	    -17.00135126	    -12.05625708	     -5.30624790	     55.72544056	      0.97259241	     -2.59233302	      0.00000000	      0.00000000	    -39.67181865	     10.53912085	      2.47236308	      0.00487202	     -5.33945526	    -10.48217615	     30.57878834	     88.59226672	     -8.80951013	      3.21666621	      5.92271338	     -4.73491035	      3.90131891	     36.53184408	     89.10492248	    -20.71254363	     -2.68039757
      0.23000000	     20.67879339	     -6.67401097	      4.00163943	     -0.93174453	      0.89864836	      0.23527498	     -6.25913434	      9.55842074	     -4.80474474	     17.84112069	      0.31138630	      3.43389221	      0.00000000	      0.00000000	    -15.19216837	    -11.82658827	     -4.86147721	     56.98761983	      0.99462160	     -1.33886676	      0.00000000	      0.00000000	    -39.71686299	     10.08228865	      2.67792961	      0.32736974	     -5.31163333	    -10.38336372	     30.87363497	     88.58248481	     -8.89302499	      3.15740788	      5.93480649	     -4.75661845	      4.55374507	     35.72444393	     89.10947443	    -20.76994883	     -2.45773296
      0.24000000	     20.77106129	     -6.27864461	      3.89195842	     -0.92159877	      0.90043317	      0.23684181	     -7.38296041	      9.30693811	     -4.75269526	     17.38835137	      0.30348398	      3.90961262	      0.00000000	      0.00000000	    -13.60024079	    -11.41994179	     -4.55647168	     57.79980295	      1.00879687	     -0.22782762	      0.00000000	      0.00000000	    -39.89699345	      9.47752878	      2.86072719	      0.65197206	     -5.28344592	    -10.25115504	     31.25531394	     88.57279504	     -8.92889157	      3.06500996	      5.88482386	     -4.79039735	      5.03333589	     35.01273607	     89.12726540	    -20.81548384	     -2.29541236
      0.25000000	     20.83908053	     -5.87777880	      3.70806759	     -0.91153434	      0.90219809	      0.23838160	     -8.51790691	      9.02171552	     -4.68976626	     16.83301124	      0.29379147	      4.22012272	      0.00000000	      0.00000000	    -12.03764910	    -10.96322589	     -4.40239279	     58.26684472	      1.01694829	      0.64550084	      0.00000000	      0.00000000	    -40.07841696	      8.81695051	      3.07285514	      0.99899803	     -5.28292587	    -10.06247912	     31.67972688	     88.56852104	     -8.91388590	      2.98498314	      5.75935545	     -4.78542220	      5.29451311	     34.46904696	     89.16766248	    -20.82260303	     -2.17474015
      0.26000000	     20.85272954	     -5.39186000	      3.69615410	     -0.90149695	      0.90371610	      0.23953657	     -9.54168399	      8.63815566	     -4.96063956	     16.39216281	      0.28609721	      4.78908950	      0.00000000	      0.00000000	    -10.40102178	    -10.38915931	     -4.07433395	     58.47578491	      1.02059498	      1.93880472	      0.00000000	      0.00000000	    -40.11586891	      8.20422031	      3.33987328	      1.20388604	     -5.25505438	    -10.18452047	     32.16242041	     88.56591086	     -9.05932173	      2.80879849	      5.91596148	     -4.83037708	      6.35044649	     33.49170765	     89.14845957	    -20.94611460	     -1.99578443
      0.27000000	     20.85159795	     -5.03234003	      3.50093120	     -0.89148992	      0.90518354	      0.24099978	    -10.59622449	      8.37485962	     -4.92878627	     15.80130530	      0.27578480	      4.97030633	      0.00000000	      0.00000000	     -8.82599809	     -9.96398812	     -4.09897732	     58.39491185	      1.01918348	      2.57413411	      0.00000000	      0.00000000	    -40.21632216	      7.57453032	      3.53536177	      1.56736204	     -5.25453863	     -9.98730504	     32.68024774	     88.50113830	     -9.01812257	      2.72348037	      5.71832189	     -4.83556407	      6.47220690	     33.03698606	     89.17979983	    -20.95756153	     -1.91270958
      0.28000000	     20.92784462	     -4.53175825	      3.38805063	     -0.88133783	      0.90666555	      0.24210387	    -11.75283801	      7.96480592	     -4.96492145	     15.22876264	      0.26579205	      5.45860458	      0.00000000	      0.00000000	     -7.50069446	     -9.27811363	     -3.93305877	     57.80987729	      1.00897270	      3.69632446	      0.00000000	      0.00000000	    -40.30972526	      6.89107655	      3.71394125	      1.86387769	     -5.26541425	     -9.87329335	     33.14759925	     88.53179508	     -9.00330171	      2.63331815	      5.67726893	     -4.83912803	      6.96826888	     32.29558212	     89.16475578	    -20.98228852	     -1.81018211
      0.29000000	     20.82736270	     -4.25261159	      3.21902214	     -0.87114125	      0.90763874	      0.24330769	    -12.70721092	      7.76657343	     -4.99345639	     14.60296824	      0.25486988	      5.68611944	      0.00000000	      0.00000000	     -5.96601816	     -8.88916771	     -3.99410014	     57.12675585	      0.99704998	      4.16261608	      0.00000000	      0.00000000	    -40.26373481	      6.35976041	      3.95841487	      2.16557346	     -5.29692510	     -9.67872530	     33.76864142	     88.48962229	     -8.95787086	      2.53415640	      5.44740536	     -4.83027660	      7.11095005	     31.84497257	     89.18605494	    -20.99712769	     -1.74392164
